<?xml version="1.0" encoding="UTF-8"?>
<svg id="Layer_2" data-name="Layer 2" xmlns="http://www.w3.org/2000/svg" viewBox="0 0 95 95">
  <defs>
    <style>
      .cls-1 {
        fill: none;
        stroke: #fff;
        stroke-linecap: round;
        stroke-linejoin: round;
        stroke-width: 2px;
      }

      .cls-2 {
        fill: #642976;
      }
    </style>
  </defs>
  <g id="Layer_1-2" data-name="Layer 1">
    <g>
      <circle class="cls-2" cx="47.5" cy="47.5" r="47.5"/>
      <g>
        <path class="cls-1" d="M54.07,47.94c.35.52.99.87,1.73.87s1.38-.35,1.73-.87"/>
        <circle class="cls-1" cx="47.5" cy="47.5" r="27.5"/>
        <path class="cls-1" d="M45.59,54.86l-.76-.91c-.72-.87-1.92-1.18-2.98-.79l-6.51,2.44c-.92.34-1.38,1.37-1.04,2.28.34.92,1.37,1.38,2.28,1.04l5.92-2.22s2.69,6.77,7.65,6.77c7.27,0,10.48-6.1,11.57-10.36.2-.76.57-1.44,1.06-2.05,1.18-1.47,1.78-3.41,1.48-5.49-.45-3.13-3.04-5.63-6.18-5.99-4.3-.49-7.94,2.85-7.94,7.05,0,3.92,3.18,7.1,7.1,7.1"/>
        <path class="cls-1" d="M54.17,56.57l-2.81,2.34c-.33.28-.73.41-1.13.41-.51,0-1.01-.22-1.36-.64-.63-.75-.53-1.87.23-2.5l4.23-3.52"/>
        <path class="cls-1" d="M64.47,30.64c-4.09-4.11-9.63-6.76-15.73-7.07-4.61-.23-8.96.84-12.7,2.88-1.94,1.06-2.94,3.26-2.61,5.45.23,1.52.3,3.45-.18,5.45"/>
        <path class="cls-1" d="M50.28,54.59c-6.94-9.54-10.98-5.42-15.15-8.41-3.3-2.37-2.46-5.52-1.88-8.83.64-3.65-4.26-5.51-6.2-2.35-2.43,3.96-3.74,8.69-3.48,13.73.6,11.89,10.11,21.7,21.98,22.63,14.76,1.16,26.98-11.06,25.82-25.82-.36-4.55-2.02-8.76-4.61-12.25"/>
        <path class="cls-1" d="M46.74,39.53s4.06-4.26,2.49-8.08c-.61-1.48-2.3-2.19-3.77-1.58-.98.4-1.61,1.27-1.76,2.24-.79-.59-1.85-.76-2.83-.36-1.48.61-2.19,2.3-1.58,3.77,1.57,3.82,7.45,4.01,7.45,4.01Z"/>
      </g>
    </g>
  </g>
</svg>