<?xml version="1.0" encoding="UTF-8"?>
<svg id="Layer_2" data-name="Layer 2" xmlns="http://www.w3.org/2000/svg" viewBox="0 0 90 90">
  <defs>
    <style>
      .cls-1 {
        fill: none;
        stroke: #fff;
        stroke-linecap: round;
        stroke-linejoin: round;
        stroke-width: 2px;
      }

      .cls-2 {
        fill: #642976;
      }
    </style>
  </defs>
  <g id="Layer_1-2" data-name="Layer 1">
    <g>
      <circle class="cls-2" cx="45" cy="45" r="45"/>
      <g id="g3354">
        <g id="g3356">
          <g id="g3358">
            <g id="g3364">
              <path id="path3366" class="cls-1" d="M47.3,18.3h0c.96.76,2.23,1,3.4.64,1.64-.51,3.42.18,4.3,1.66.62,1.06,1.72,1.74,2.94,1.82,1.72.12,3.13,1.4,3.4,3.1.2,1.21.98,2.24,2.09,2.76,1.56.73,2.41,2.44,2.05,4.12-.25,1.2.1,2.44.95,3.33,1.19,1.24,1.37,3.14.43,4.59-.67,1.03-.79,2.32-.32,3.45.66,1.59.14,3.43-1.26,4.43-.99.71-1.57,1.87-1.54,3.1.04,1.72-1.11,3.24-2.78,3.68-1.19.31-2.14,1.18-2.56,2.33-.58,1.62-2.21,2.62-3.92,2.43-1.22-.14-2.42.33-3.23,1.25-1.13,1.3-3.01,1.65-4.53.85-1.08-.57-2.38-.57-3.46,0-1.52.8-3.4.45-4.53-.85-.8-.92-2.01-1.39-3.23-1.25-1.71.2-3.33-.8-3.92-2.43-.41-1.15-1.37-2.02-2.56-2.33-1.67-.43-2.82-1.95-2.78-3.68.03-1.22-.55-2.38-1.54-3.1-1.4-1-1.92-2.84-1.26-4.43.47-1.13.35-2.42-.32-3.45-.94-1.44-.77-3.34.43-4.59.85-.88,1.2-2.13.95-3.33-.36-1.68.49-3.39,2.05-4.12,1.11-.52,1.89-1.55,2.09-2.76.28-1.7,1.69-2.99,3.4-3.1,1.22-.08,2.32-.77,2.94-1.82.87-1.49,2.65-2.17,4.3-1.66,1.17.36,2.44.13,3.4-.64,1.35-1.07,3.26-1.07,4.61,0Z"/>
            </g>
            <g id="g3368">
              <path id="path3370" class="cls-1" d="M58.12,29.61c2.22,2.83,3.54,6.4,3.54,10.27,0,9.2-7.46,16.66-16.66,16.66-3.89,0-7.46-1.33-10.3-3.56"/>
            </g>
            <g id="g3372">
              <path id="path3374" class="cls-1" d="M31.93,50.22c-2.25-2.84-3.59-6.43-3.59-10.33,0-9.2,7.46-16.66,16.66-16.66,3.91,0,7.5,1.34,10.34,3.6"/>
            </g>
            <g id="g3376">
              <path id="path3378" class="cls-1" d="M30.96,56.2l-4.61,9.08c-.48.94.36,2.01,1.39,1.78l5.55-1.24c.58-.13,1.18.17,1.42.72l2.27,5.21c.42.97,1.78,1.01,2.26.07l5.27-10.37"/>
            </g>
            <g id="g3380">
              <path id="path3382" class="cls-1" d="M45.51,61.44l5.27,10.37c.48.94,1.84.9,2.26-.07l2.27-5.21c.24-.55.83-.85,1.42-.72l5.55,1.24c1.03.23,1.86-.84,1.39-1.78l-4.61-9.08"/>
            </g>
            <g id="g3384">
              <path id="path3386" class="cls-1" d="M52.87,59.91l3.04,6"/>
            </g>
            <g id="g3388">
              <path id="path3390" class="cls-1" d="M34.09,65.91l3.04-6"/>
            </g>
            <g id="g3392">
              <path id="path3394" class="cls-1" d="M43.38,42.76h-8.81s4.66-8.45,5.43-9.4c.78-.95,1.52-.36,1.59.48.07.84-.04,13.06-.04,13.06"/>
            </g>
            <g id="g3396">
              <path id="path3398" class="cls-1" d="M55.43,43c0,2.15-1.75,3.9-3.9,3.9s-3.9-1.75-3.9-3.9v-6.23c0-2.15,1.75-3.9,3.9-3.9s3.9,1.75,3.9,3.9v6.23Z"/>
            </g>
          </g>
        </g>
      </g>
    </g>
  </g>
</svg>