<?xml version="1.0" encoding="UTF-8"?>
<svg id="Layer_2" data-name="Layer 2" xmlns="http://www.w3.org/2000/svg" viewBox="0 0 95 95">
  <defs>
    <style>
      .cls-1 {
        fill: #fff;
        fill-rule: evenodd;
      }

      .cls-2 {
        fill: #642976;
      }
    </style>
  </defs>
  <g id="Layer_1-2" data-name="Layer 1">
    <g>
      <circle class="cls-2" cx="47.5" cy="47.5" r="47.5"/>
      <g id="Layer_1-3" data-name="Layer_1">
        <g id="_390032152" data-name=" 390032152">
          <g>
            <path id="_390033520" data-name=" 390033520" class="cls-1" d="M66.29,67.51h-11.29c-.32,0-.57-.26-.57-.57,0-3.82-3.11-6.92-6.92-6.92s-6.92,3.11-6.92,6.92c0,.32-.26.57-.57.57h-11.29c-.32,0-.57-.26-.57-.57v-10.78c0-6.87,5.59-12.46,12.46-12.46h2.38c.17,0,.34.08.45.22l4.07,5.12,4.07-5.12c.11-.14.27-.22.45-.22h2.38c6.87,0,12.46,5.59,12.46,12.46v10.78c0,.32-.26.57-.57.57h0ZM55.55,66.36h10.17v-10.2c0-6.24-5.08-11.32-11.32-11.32h-2.1l-4.34,5.47c-.11.14-.27.22-.45.22s-.34-.08-.45-.22l-4.34-5.47h-2.1c-6.24,0-11.32,5.08-11.32,11.32v10.2h10.17c.29-4.18,3.79-7.49,8.05-7.49s7.75,3.31,8.05,7.49h0Z"/>
            <path id="_390033376" data-name=" 390033376" class="cls-1" d="M47.5,42.27c-5.06,0-9.18-4.12-9.18-9.18v-3.91c0-5.06,4.12-9.18,9.18-9.18s9.18,4.12,9.18,9.18v3.91c0,5.06-4.12,9.18-9.18,9.18h0ZM47.5,21.15c-4.43,0-8.03,3.6-8.03,8.03v3.91c0,4.43,3.6,8.03,8.03,8.03s8.03-3.6,8.03-8.03v-3.91c0-4.43-3.6-8.03-8.03-8.03Z"/>
            <path id="_390033208" data-name=" 390033208" class="cls-1" d="M58.88,57.87c-.09,0-.19-.02-.28-.07l-2.27-1.25-2.27,1.25c-.19.11-.43.09-.61-.04-.18-.13-.27-.35-.23-.57l.49-2.54-1.89-1.77c-.16-.15-.22-.38-.15-.59.07-.21.25-.36.47-.39l2.57-.32,1.1-2.34c.09-.2.3-.33.52-.33s.42.13.52.33l1.1,2.34,2.57.32c.22.03.4.18.47.39.07.21,0,.44-.15.59l-1.89,1.77.49,2.54c.04.22-.05.44-.23.57-.1.07-.22.11-.34.11h0ZM56.33,55.32c.1,0,.19.02.28.07l1.48.81-.32-1.65c-.04-.19.03-.39.17-.53l1.23-1.15-1.67-.21c-.19-.02-.36-.15-.45-.32l-.72-1.52-.72,1.52c-.08.18-.25.3-.45.32l-1.67.21,1.23,1.15c.14.13.21.33.17.53l-.32,1.65,1.47-.81c.09-.05.18-.07.28-.07h0Z"/>
            <path id="_390033304" data-name=" 390033304" class="cls-1" d="M36.11,67.51c-.32,0-.57-.26-.57-.57v-7.52c0-.32.26-.57.57-.57s.57.26.57.57v7.52c0,.32-.26.57-.57.57Z"/>
            <path id="_390032872" data-name=" 390032872" class="cls-1" d="M58.89,67.51c-.32,0-.57-.26-.57-.57v-7.52c0-.32.26-.57.57-.57s.57.26.57.57v7.52c0,.32-.26.57-.57.57Z"/>
            <path id="_390032992" data-name=" 390032992" class="cls-1" d="M47.5,50.52c-.17,0-.34-.08-.45-.22l-4.52-5.68c-.08-.1-.12-.23-.12-.36v-3.86c0-.21.11-.4.29-.5.18-.1.4-.1.58.01,1.27.79,2.73,1.2,4.21,1.2s2.95-.42,4.21-1.2c.18-.11.4-.11.58-.01.18.1.29.29.29.5v3.86c0,.13-.04.26-.12.36l-4.52,5.68c-.11.14-.27.22-.45.22h0ZM43.56,44.06l3.94,4.96,3.94-4.96v-2.69c-1.23.59-2.57.9-3.94.9s-2.72-.31-3.94-.9v2.69Z"/>
            <path id="_390032104" data-name=" 390032104" class="cls-1" d="M38.89,30.12c-.31,0-.57-.25-.57-.56,0-.32.25-.58.56-.58,3.35-.06,8.23-.73,12.49-3.59.14-.1.32-.12.49-.07.16.05.3.17.36.33.04.09.98,2.25,3.99,2.85.31.06.51.36.45.67-.06.31-.36.51-.67.45-2.62-.53-3.95-2.08-4.5-2.95-4.36,2.72-9.22,3.38-12.59,3.44,0,0,0,0-.01,0h0Z"/>
            <path id="_390032728" data-name=" 390032728" class="cls-1" d="M47.5,75c-4.45,0-8.07-3.62-8.07-8.07s3.62-8.07,8.07-8.07,8.07,3.62,8.07,8.07-3.62,8.07-8.07,8.07ZM47.5,60.01c-3.82,0-6.92,3.11-6.92,6.92s3.11,6.92,6.92,6.92,6.92-3.11,6.92-6.92-3.11-6.92-6.92-6.92Z"/>
            <g>
              <path id="_390032200" data-name=" 390032200" class="cls-1" d="M47.5,71.53c-.32,0-.57-.26-.57-.57v-8.06c0-.32.26-.57.57-.57s.57.26.57.57v8.06c0,.32-.26.57-.57.57Z"/>
              <path id="_390032176" data-name=" 390032176" class="cls-1" d="M51.53,67.51h-8.06c-.32,0-.57-.26-.57-.57s.26-.57.57-.57h8.06c.32,0,.57.26.57.57s-.26.57-.57.57Z"/>
            </g>
          </g>
        </g>
      </g>
    </g>
  </g>
</svg>