<?xml version="1.0" encoding="UTF-8"?>
<svg id="Layer_2" data-name="Layer 2" xmlns="http://www.w3.org/2000/svg" viewBox="0 0 95 95">
  <defs>
    <style>
      .cls-1 {
        fill: #fff;
      }

      .cls-2 {
        fill: #642976;
      }
    </style>
  </defs>
  <g id="Layer_1-2" data-name="Layer 1">
    <g>
      <circle class="cls-2" cx="47.5" cy="47.5" r="47.5"/>
      <path class="cls-1" d="M59.75,67.44l.02,6.73c0,.35.29.64.64.64h0c.36,0,.64-.29.64-.64l-.02-6.75c-.08-2.38-1.38-4.63-3.97-5.77l-3.49-1.53c-.16-.07-.32-.07-.47-.01-.22-.08-.48.05-.49.32-.07,3.29-3.91,8.37-4.09,13.94h1.45c.83-4.34,2.42-5.97,3.38-6.57.37-.23.49-.71.25-1.08-.4-.62-.86-1.45-.64-1.8.14-.23.7-.24,1.2-.19.46.04.87-.34.84-.8-.05-.78-.28-1.45-.57-2.02l2.12.93c2.1.92,3.13,2.73,3.2,4.62Z"/>
      <path class="cls-1" d="M39.67,68.04v6.19c0,.36.29.64.64.64s.64-.29.64-.64v-6.19c0-.36-.29-.64-.64-.64s-.64.29-.64.64Z"/>
      <path class="cls-1" d="M55.16,68.04c0,.21,0,6.44,0,6.15v.04c0,.36.29.64.64.64s.64-.29.64-.64,0-6.29,0-6.19c0-.36-.29-.64-.64-.64s-.64.29-.64.64Z"/>
      <path class="cls-1" d="M42.57,67.36c1.06.9,3.07,3.08,3.49,6.92h1.46c-.15-5.36-3.84-10.44-4.07-13.7-.02-.33-.35-.51-.62-.41-.39-.07-.27.04-3.76,1.47-2.63,1.12-3.92,3.42-4.01,5.8l-.02,6.8c0,.36.29.64.64.64h0c.35,0,.64-.29.64-.64l.02-6.77c.07-1.87,1.05-3.71,3.22-4.64l2.2-.94c-.15.45-.26.98-.28,1.63-.01.45.33.84.78.87.36.02.73.09.81.26.16.33-.27,1.03-.65,1.55-.27.36-.21.86.13,1.15Z"/>
      <path class="cls-1" d="M51.32,61.07c.61-.36.27-1.38-.58-1.13-1.84.63-3.7.62-5.53-.02-.02,0-.05,0-.07-.01-.81-.19-1.09.97-.35,1.22,1.07.37,2.14.56,3.22.56,1.48,0,2.97-.41,3.33-.62Z"/>
      <path class="cls-1" d="M42.61,44.97c-1.38,1.7-1.4,3.33-1.4,3.41,0,.33.25.61.59.64.05.62.15,1.11.27,1.49-1.33.74-.82,3.31.67,3.69,1.81,6.36,8.67,6.38,10.5.03.65-.1,1.25-.69,1.48-1.53h0c.28-1.02-.1-1.98-.85-2.26.68-2.11.67-3.76-.03-4.92-.5-.83-1.23-1.18-1.67-1.32-1.38-2.98-5.75-2.23-5.95-2.19-.28.05-.5.28-.53.57-1.6.13-3.02,1.34-3.1,1.41-.3.26-.29.74.02.99ZM53.47,52.36c-.11.4-.35.59-.39.61-.37-.22-.86-.02-.96.41-.56,2.55-2.26,4.32-4.13,4.32s-3.55-1.76-4.12-4.28c-.08-.36-.45-.58-.82-.47-.08-.02-.31-.21-.42-.59-.11-.4,0-.68.08-.7.09.03.05.03.22.06.4.06.7-.24.72-.57h0s.01-.03.01-.05c0-.16.17-1.16.48-1.96.11.06.24.09.37.08.18-.02,4.06-.42,6.08-2.57.99,1.07,1.62,2.69,1.71,4.46v.07c0,.53.6.83,1.03.51.04-.03.07-.04.08-.05.06.06.16.33.05.72Z"/>
      <path class="cls-1" d="M64.1,65.02c.3-.19.39-.59.2-.89-.19-.3-.59-.39-.89-.2l-1.14.72c-.55.34-.3,1.19.34,1.19.31,0,.4-.17,1.48-.81Z"/>
      <path class="cls-1" d="M73.21,66.43l-3.99-2.51c-.3-.19-.7-.1-.89.2-.19.3-.1.7.2.89l4,2.51c1.06.66,1.72,1.8,1.76,3.04v3.79c.01.36.3.64.66.64s.64-.29.64-.64c0-.09-.01-4.08-.01-3.84-.06-1.68-.94-3.21-2.37-4.09Z"/>
      <path class="cls-1" d="M72.2,74.36v-3.34c0-.36-.29-.64-.64-.64s-.64.29-.64.64v3.34c0,.36.29.64.64.64s.64-.29.64-.64Z"/>
      <path class="cls-1" d="M67.21,64.58c-.6.26-1.18.26-1.78,0-.33-.14-.7.01-.85.34-.14.33.01.71.34.85.91.39,1.85.41,2.79,0,.33-.14.48-.52.34-.85-.14-.33-.52-.48-.85-.34Z"/>
      <path class="cls-1" d="M70.89,53.15c-2.43-2.47-5.41-1.73-6.77-.93-2.72.28-3.17,2.58-2.24,5.19-.48.82-.25,2.02.52,2.64.61,1.98,2.15,3.29,3.89,3.29s3.3-1.32,3.92-3.31c.72-.6.98-1.74.53-2.57.51-1.51.29-2.58-.06-3.27.42-.18.52-.72.21-1.04ZM69.03,59.47c-.42,1.54-1.52,2.58-2.74,2.58s-2.31-1.03-2.71-2.57c-.04-.17-.16-.31-.31-.4-.1-.05-.18-.15-.25-.28.34-.07.58-.4.51-.75,0,0-.15-.88.29-1.38.22-.26.34-.58.34-.92.02-.34-.06-.35.11-.5.11-.1.31-.14.47-.08.93.32,2.16.37,3.14.04.32-.11.6.08.6.21.02.19-.11.75.34,1.25.31.35.37.93.3,1.39-.04.29.11.58.46.71-.18.39-.45.31-.56.71Z"/>
      <path class="cls-1" d="M66.6,69.44c.49,0,.89-.4.89-.89s-.4-.89-.89-.89-.89.4-.89.89.4.89.89.89Z"/>
      <circle class="cls-1" cx="66.6" cy="73.46" r=".89"/>
      <path class="cls-1" d="M22.63,68.76l3.62-2.26c.3-.19.39-.58.21-.89-.19-.3-.58-.39-.89-.21l-3.62,2.26c-1.52.94-2.46,2.57-2.52,4.36v2.33c-.01.36.27.64.63.64s.64-.29.64-.64c0-.09.01-2.43.01-2.28.05-1.36.77-2.6,1.92-3.31Z"/>
      <path class="cls-1" d="M24.06,70.5c-.29-.2-.69-.13-.89.16-.56.8-.56,3.2,0,4.01.12.18.32.28.53.28.51,0,.82-.58.53-1.01-.25-.37-.25-2.18,0-2.54.2-.29.12-.7-.17-.89Z"/>
      <path class="cls-1" d="M32.64,66.57c-.21-.28-.62-.34-.9-.13-1.21.9-2.75.91-3.97,0-.28-.21-.69-.16-.9.13-.21.28-.16.69.13.9,1.69,1.27,3.82,1.26,5.51,0,.28-.21.34-.62.13-.9Z"/>
      <path class="cls-1" d="M33.15,59.65c0-.35-.28-.64-.66-.64-.01,0-2.27.04-2.85-1.6-.22-.62-1.14-.55-1.24.12,0,.05-.22,1.32-1.4,1.5-.31.05-.55.32-.55.64v1.27c0,1.85,1.5,3.35,3.35,3.35s3.35-1.5,3.35-3.35v-1.27ZM31.86,60.93c0,1.14-.92,2.06-2.06,2.06s-2.06-.92-2.06-2.06v-.77c.65-.23,1.11-.67,1.41-1.13.82.86,1.99,1.14,2.71,1.23v.67Z"/>
      <path class="cls-1" d="M24.15,57.61v6.81c0,.36.29.64.64.64s.64-.29.64-.64v-6.81c0-2.41,1.96-4.36,4.36-4.36s4.36,1.96,4.36,4.36v4.97c0,.36.29.64.64.64s.64-.29.64-.64v-4.97c0-3.11-2.53-5.65-5.65-5.65s-5.65,2.53-5.65,5.65Z"/>
      <path class="cls-1" d="M30.44,70.05c0-.36-.29-.64-.64-.64s-.64.29-.64.64v.71c0,.36.29.64.64.64s.64-.29.64-.64v-.71Z"/>
      <path class="cls-1" d="M29.8,72.86c-.36,0-.64.29-.64.64v.71c0,.36.29.64.64.64s.64-.29.64-.64v-.71c0-.36-.29-.64-.64-.64Z"/>
      <path class="cls-1" d="M68.5,50.33c.33.12.7-.05.82-.39,5.23-14.55-5.6-29.94-21.06-29.94s-26.56,15.96-20.86,30.48c.13.33.5.49.83.36.33-.13.49-.5.36-.83-5.37-13.67,4.78-28.73,19.66-28.73s24.78,14.51,19.85,28.22c-.12.33.05.7.39.82Z"/>
      <path class="cls-1" d="M64.25,50.53c.32.15.7.01.85-.31,5.69-12.21-3.22-26.42-16.84-26.42s-22.8,14.64-16.59,26.94c.11.22.34.35.57.35.47,0,.79-.5.57-.93-5.78-11.44,2.56-25.07,15.44-25.07s20.98,13.22,15.68,24.59c-.15.32-.01.71.31.86Z"/>
      <path class="cls-1" d="M52.49,32.27c0-2.33-1.9-4.23-4.23-4.23s-4.23,1.9-4.23,4.23,1.9,4.23,4.23,4.23,4.23-1.9,4.23-4.23ZM48.26,29.33c1.71,0,3.17,1.5,2.9,3.37-1.9-.57-3.89-.57-5.79,0-.27-1.86,1.17-3.37,2.9-3.37Z"/>
      <path class="cls-1" d="M34.63,37.95c-.88,2.72,1.15,5.53,4.02,5.53,3.16,0,5.2-3.34,3.77-6.15-1.7-3.34-6.63-2.95-7.78.61ZM36.03,40.59c-1.25-2.46,1.33-5.23,3.91-3.96-1.08,1.58-1.74,3.47-1.78,5.52-.99-.17-1.72-.75-2.13-1.55Z"/>
      <path class="cls-1" d="M61.89,37.95c-1.16-3.57-6.08-3.95-7.78-.61-1.7,3.33,1.49,7.1,5.07,5.94,2.22-.72,3.43-3.11,2.71-5.32ZM58.36,42.14c-.05-2.05-.7-3.94-1.78-5.52,1.7-.84,3.56.1,4.09,1.72.54,1.65-.46,3.48-2.31,3.8Z"/>
    </g>
  </g>
</svg>