<?xml version="1.0" encoding="UTF-8"?>
<svg id="Layer_2" data-name="Layer 2" xmlns="http://www.w3.org/2000/svg" viewBox="0 0 95 95">
  <defs>
    <style>
      .cls-1 {
        fill: #fff;
      }

      .cls-2 {
        fill: #642976;
      }
    </style>
  </defs>
  <g id="Layer_1-2" data-name="Layer 1">
    <g>
      <circle class="cls-2" cx="47.5" cy="47.5" r="47.5"/>
      <g>
        <path class="cls-1" d="M36.18,67.92c.88,0,1.72-.34,2.35-.94,1.34-1.28,1.39-3.41.1-4.75,0,0-.01-.01-.02-.02-1.3-1.33-3.44-1.37-4.79-.08-1.34,1.28-1.39,3.41-.1,4.75,0,0,.01.01.02.02.64.66,1.52,1.03,2.44,1.02h0ZM34.78,63.12c.8-.77,2.07-.75,2.85.05.76.78.75,2.04-.03,2.8,0,0,0,0-.01.01-.8.77-2.07.75-2.85-.05-.76-.78-.75-2.04.03-2.8,0,0,0,0,.01-.01h0Z"/>
        <path class="cls-1" d="M36.7,55.42c.88,0,1.72-.34,2.35-.94,1.34-1.28,1.39-3.41.1-4.75,0,0-.01-.01-.02-.02-1.3-1.33-3.44-1.37-4.79-.08-1.34,1.28-1.39,3.41-.1,4.75,0,0,.01.01.02.02.64.66,1.52,1.03,2.44,1.02h0ZM35.3,50.61c.8-.77,2.07-.75,2.85.05.76.78.75,2.04-.03,2.8,0,0,0,0-.01.01-.8.77-2.07.75-2.85-.05-.76-.78-.75-2.04.03-2.8,0,0,0,0,.01-.01h0Z"/>
        <path class="cls-1" d="M40.68,58.44c1.06.49,1.09.99,1.15,1.81s.14,1.94,1.51,2.82c.31.21.74.13.96-.18.21-.31.13-.74-.18-.96-.01,0-.02-.01-.03-.02-.8-.51-.83-1.01-.88-1.76-.06-.9-.15-2.12-1.94-2.96-.34-.16-.75-.01-.92.33-.16.34-.01.75.33.92h0Z"/>
        <path class="cls-1" d="M30.02,60.99c.38,0,.69-.31.69-.69,0-.13-.04-.25-.1-.36-.61-.99-.37-1.42.03-2.13s.96-1.7.29-3.19c-.15-.35-.56-.51-.91-.36-.35.15-.51.56-.36.91,0,0,0,.01,0,.02.38.86.14,1.29-.23,1.95-.44.78-1.05,1.86,0,3.53.13.2.35.33.59.33Z"/>
        <path class="cls-1" d="M70.41,20.61c-.78-.79-2.05-.82-2.85-.05l-.09.08c-.8.77-.83,2.03-.06,2.83,0,0,0,0,.01.01l.41.42-3.84,3.69-.41-.43c-.78-.79-2.05-.82-2.85-.05-.8.77-.83,2.03-.06,2.83,0,0,0,0,.01.01l.08.08-11.06,10.62c-.4.38-.55.95-.4,1.48l-.77.74c-.71.68-.74,1.82-.05,2.53,0,0,0,0,.01.01h0s-.94.91-.94.91c-6.45-6.12-16.71-6.13-23.18.08-6.61,6.32-6.83,16.81-.51,23.41.04.04.07.07.11.11,6.45,6.59,17,6.77,23.67.4,6.45-6.18,6.84-16.36.88-23.01l.94-.9h.01c.69.72,1.83.74,2.55.06l.78-.74c.15.05.31.07.47.08.38,0,.75-.15,1.03-.41l11.06-10.62.08.09c.78.79,2.05.82,2.85.05.8-.77.83-2.03.06-2.83,0,0,0,0-.01-.01l-.41-.42,3.84-3.69.41.43c.78.79,2.05.82,2.85.05l.09-.08c.8-.77.83-2.03.06-2.83,0,0,0,0-.01-.01l-4.76-4.89ZM51.36,58.63c-.06,4.05-1.75,7.91-4.68,10.71-6.09,5.85-15.84,5.68-21.72-.37-5.85-6-5.74-15.61.27-21.47.03-.03.07-.07.1-.1,5.93-5.66,15.24-5.71,21.23-.12l-1.22,1.17c-5.27-4.91-13.58-4.89-18.83.15-1.7,1.63-2.95,3.67-3.62,5.93-.1.37.11.75.47.85.37.1.75-.11.85-.47.6-2.03,1.72-3.86,3.25-5.32,4.7-4.49,12.08-4.57,16.88-.19l-1.06,1.02c-.27.26-.28.7-.02.97.26.27.7.28.97.02,0,0,0,0,0,0l1.07-1.03c4.26,4.89,3.93,12.26-.76,16.74-4.87,4.68-12.67,4.54-17.37-.29-1.74-1.78-2.89-4.05-3.29-6.5-.06-.38-.42-.63-.79-.56-.38.06-.63.42-.56.79.45,2.73,1.73,5.25,3.66,7.23,5.26,5.38,13.87,5.53,19.32.33,5.23-5.01,5.59-13.25.8-18.69l1.22-1.17c2.55,2.84,3.92,6.54,3.85,10.36h0ZM51.05,45.48c-.17.16-.44.16-.6-.01l-.98-1.01c-.16-.16-.16-.42,0-.58,0,0,0,0,0,0l.65-.63,1.57,1.61-.65.62ZM53.33,44.4s-.11.04-.16,0l-2.52-2.59s-.04-.1,0-.14c0,0,0,0,0,0l11.06-10.62,2.67,2.75-11.06,10.62ZM67.33,33.91c-.26.25-.66.24-.91-.02l-4.76-4.89c-.24-.25-.24-.64,0-.89,0,0,0,0,0,0,.26-.25.66-.24.91.02l4.76,4.89c.24.25.24.64,0,.89,0,0,0,0,0,0ZM66.96,30.65l-2.01-2.07,3.84-3.69,2.01,2.07-3.84,3.69ZM74.16,27.35l-.09.08c-.26.25-.66.24-.91-.02l-4.76-4.89c-.24-.25-.24-.64,0-.89,0,0,0,0,0,0l.09-.08c.26-.25.66-.24.91.02l4.76,4.89c.24.25.24.64,0,.89,0,0,0,0,0,0h0Z"/>
        <path class="cls-1" d="M58.35,45.67l.48-.46c.27-.26.28-.7.02-.97-.26-.27-.7-.28-.97-.02l-.48.46c-.28.26-.29.7-.03.97.26.28.7.29.97.03,0,0,0,0,.01-.01h0Z"/>
        <path class="cls-1" d="M60.63,43.48l4.41-4.24c.27-.26.28-.7.02-.97s-.7-.28-.97-.02c0,0,0,0,0,0l-4.41,4.24c-.27.26-.28.7-.02.97s.7.28.97.02c0,0,0,0,0,0h0Z"/>
      </g>
    </g>
  </g>
</svg>