<?xml version="1.0" encoding="UTF-8"?>
<svg id="Layer_2" data-name="Layer 2" xmlns="http://www.w3.org/2000/svg" viewBox="0 0 95 95">
  <defs>
    <style>
      .cls-1 {
        fill: #fff;
        fill-rule: evenodd;
      }

      .cls-2 {
        fill: #642976;
      }
    </style>
  </defs>
  <g id="Layer_1-2" data-name="Layer 1">
    <g>
      <circle class="cls-2" cx="47.5" cy="47.5" r="47.5"/>
      <path class="cls-1" d="M57.74,47.8c-2.82,2.43-5.45,3.55-7.85,3.44-2.58-.12-4.96-1.62-7.07-4.59-.19-.27-.18-.63.04-.88,1.38-1.62,2.8-2.74,4.26-3.37-.71-1.67-.95-3.73-.68-6.16.04-.33.3-.59.63-.63,1.8-.22,3.38-.17,4.75.16.41-2.69,2.08-5.27,5.07-7.7.26-.21.63-.22.89-.02,3.17,2.41,4.97,5.05,5.46,7.82,1.46-.42,3.19-.52,5.17-.27.33.04.59.3.63.63.27,2.44.03,4.5-.68,6.17,1.46.63,2.89,1.75,4.27,3.38.21.25.23.61.04.88-2.12,2.97-4.49,4.47-7.07,4.59-2.4.11-5.03-1.01-7.85-3.44h0ZM56.2,46.31c-2.07-1.96-4.05-3-5.97-3.08-2.06-.08-4.01.96-5.9,3.05,1.71,2.23,3.57,3.44,5.63,3.53,2.08.09,4.31-.93,6.73-3-.17-.17-.33-.34-.48-.5h0ZM48.48,41.96c.6-.13,1.2-.19,1.8-.16,1,.04,2.02.29,3.06.77-1.06-1.82-1.59-3.59-1.63-5.3,0-.01,0-.03,0-.04-1.13-.31-2.43-.39-3.9-.25-.15,1.96.07,3.63.68,4.98ZM58.81,46.83c2.42,2.06,4.64,3.07,6.72,2.98,2.06-.09,3.92-1.3,5.63-3.53-1.89-2.08-3.84-3.13-5.9-3.05-1.89.07-3.84,1.08-5.87,2.98-.18.2-.37.41-.57.61h0ZM58.34,45.21c2.44-2.73,3.65-5.39,3.59-7.96-.07-2.75-1.62-5.34-4.58-7.72-2.82,2.43-4.25,4.98-4.2,7.69.05,2.57,1.43,5.25,4.08,8.07.17.16.34.33.51.5.2-.2.4-.4.6-.59h0ZM63.37,37.33c.02,1.73-.45,3.51-1.43,5.32,1.11-.53,2.19-.82,3.26-.86.6-.02,1.2.03,1.79.16.61-1.36.83-3.03.68-4.99-1.65-.15-3.08-.03-4.29.37h0ZM35.22,66.05c.13.3.25.6.38.91h0c.23.55.23,1.11,0,1.67h0c-.23.55-.62.95-1.18,1.18h0s-3.41,1.42-3.41,1.42c-1.11.46-2.39-.07-2.84-1.17-1.93-4.63-3.86-9.26-5.78-13.89-.23-.55-.23-1.11,0-1.67.23-.55.63-.95,1.18-1.18l3.42-1.42c1.1-.46,2.38.07,2.84,1.17h0c.11.27.22.53.33.79,1.69-.8,3.39-1.61,5.07-2.43,2.25-1.1,4.02-1.83,6.08-1.55,1.35.18,2.83.8,4.66,2.08l6.32,1.69c1.07.29,1.92,1.02,2.38,1.95l8.88-2.6c3.76-1.1,5.84-.31,6.76.92.6.82.76,1.88.53,2.92-.32,1.48-1.41,2.91-2.9,3.49l-13.33,5.14c-2.23.86-5.2,2.06-7.6,1.37l-7.1-2.06h0c-.85-.25-1.67-.18-2.48.21l-2.2,1.07ZM34.27,67.5c-.21-.51-5.58-13.39-5.78-13.89-.16-.37-.59-.55-.96-.4l-3.42,1.42c-.19.08-.32.21-.4.4-.08.19-.08.37,0,.56h0c1.93,4.63,3.86,9.26,5.78,13.89h0c.16.37.59.55.96.4l3.41-1.42h0c.19-.08.32-.21.4-.4.08-.19.07-.38,0-.57ZM34.67,64.72l2.12-1.03c1.14-.55,2.3-.65,3.51-.3l7.1,2.06c1.01.29,2.14.15,3.25-.13,1.21-.31,2.41-.8,3.43-1.2l13.33-5.14c1.04-.4,1.79-1.42,2.01-2.45.14-.63.08-1.27-.28-1.76-.31-.42-.83-.71-1.58-.82-.9-.14-2.09-.03-3.62.42l-8.9,2.61c.03.41,0,.83-.12,1.25-.53,1.99-2.6,3.18-4.58,2.64l-8.56-2.29c-.38-.1-.61-.5-.51-.88.1-.38.5-.61.88-.51l8.56,2.29h0c1.22.33,2.49-.4,2.82-1.63.33-1.22-.41-2.49-1.63-2.82l-6.44-1.73c-.08-.02-.16-.06-.23-.11-1.63-1.16-2.94-1.74-4.13-1.9-1.79-.24-3.31.47-5.26,1.42-1.71.84-3.43,1.66-5.15,2.47,1.32,3.18,2.65,6.35,3.97,9.53h0ZM34.89,23.62c5.21,0,9.44,4.23,9.44,9.44s-4.23,9.44-9.44,9.44-9.44-4.23-9.44-9.44,4.23-9.44,9.44-9.44ZM34.89,25.06c-4.42,0-8.01,3.59-8.01,8.01s3.59,8.01,8.01,8.01,8.01-3.59,8.01-8.01-3.59-8.01-8.01-8.01ZM32.25,30.42v-2.6c0-.4.32-.72.72-.72h3.84c.4,0,.72.32.72.72v2.6h2.6c.4,0,.72.32.72.72v3.84c0,.4-.32.72-.72.72h-2.6v2.6c0,.4-.32.72-.72.72h-3.84c-.4,0-.72-.32-.72-.72v-2.6h-2.6c-.4,0-.72-.32-.72-.72v-3.84c0-.4.32-.72.72-.72h2.6ZM32.97,31.86h-2.6v2.4h2.6c.4,0,.72.32.72.72v2.6h2.4v-2.6c0-.4.32-.72.72-.72h2.6v-2.4h-2.6c-.4,0-.72-.32-.72-.72v-2.6h-2.4v2.6c0,.4-.32.72-.72.72Z"/>
    </g>
  </g>
</svg>