<?xml version="1.0" encoding="UTF-8"?>
<svg id="Layer_2" data-name="Layer 2" xmlns="http://www.w3.org/2000/svg" xmlns:xlink="http://www.w3.org/1999/xlink" viewBox="0 0 391.35 139.84">
  <defs>
    <style>
      .cls-1 {
        fill: #642976;
      }

      .cls-2 {
        fill: #ed4957;
      }

      .cls-3 {
        fill: url(#linear-gradient);
      }
    </style>
    <linearGradient id="linear-gradient" x1="-8.88" y1="48.87" x2="107.17" y2="116.9" gradientUnits="userSpaceOnUse">
      <stop offset="0" stop-color="#f15e47"/>
      <stop offset=".48" stop-color="#ec376c"/>
      <stop offset="1" stop-color="#9a247a"/>
    </linearGradient>
  </defs>
  <g id="Layer_1-2" data-name="Layer 1">
    <g>
      <path class="cls-3" d="M32.87,83.38c.22-.46.63-1.71.78-1.9.78.22.43,2.22.26,2.81-.98,2.31-3.93,4.29-6.41,3.27l-.05-.13c.32-.25,1.17-.59,1.57-.75,1.75-.73,2.87-1.69,3.85-3.3ZM48.02,83.24c.51-1.12,1.18-2.11,2.6-1.99l.05.09c-.13.11-.79.67-.86.77-.71.99-.4,2.55-1.25,3.51-1.16,1.32-2.58,1.86-3.98,3.11-1.05.8-1.3.95-2.53,1.41.23-.38.46-.76.7-1.14,1.12-1.58.58-2.6,2.88-3.51.8-1.28,1.11-1.49,2.38-2.25ZM18.17,53.71c.26.2.75,1.93.96,2.39,2.28,5.12,6.62,6.78,12.04,5.82-.38.27-.64.43-1.06.66-4.13,1.58-8.56.51-10.9-3.44-.91-1.53-1.5-3.66-1.04-5.42ZM14.46,56.87c.35.12.71.71.91,1.01,2.74,4.19,6.1,8.21,11.51,8.38.44.01.99,0,1.42.07v.12s-.27.15-.27.15c-.14.04-.28.08-.42.12-6.78,1.88-11.59-3.88-13.15-9.86ZM21.99,50.76c.1.29.14,1.04.2,1.4.94,5.51,5.99,7.65,11.25,5.84-.48.46-.64.58-1.19.95-4.38,2.32-9.53.37-10.67-4.63-.22-.98-.16-2.72.41-3.56ZM12.5,61.24c2.12-.07,4.71,3.54,5.33,5.39.78,2.37.74,4.26-.31,6.49-.18.29-.17.28-.42.5l-.1-.06c.08-1.03.31-1.54.29-2.73-.1-4.09-1.98-6.87-4.78-9.59ZM47.7,67.32c.4.39.33,1,.31,1.53-.11,3.6-2.69,5.91-6.2,5.78-.23-.06-.17-.02-.32-.18.13-.25,1.16-.65,1.51-.87,2.65-1.61,3.91-3.35,4.7-6.27ZM38.95,82.82c.32.41-.15,1.54.77,1.9.46-.13.8-.84,1.34-1.11.48-.24,1.43-.06,1.68.35l-.26.23c-.66.46-1.63,1.29-2.41,1.33-1.44.07-1.99-1.66-1.12-2.69ZM43.47,78.97c.86-.06,1.89.81,1.84,1.7-.05.91-1.15,1.48-1.81,2.05l-.08.03c-.5-.2-.6-.86-.4-1.31.3-.67,1.28-.35,1.51-1.1-.16-.71-.8-.86-1.05-1.36ZM129.8,72.37c-.12-.45-.42-.82-.83-1.04-.93-.5-2.4-.29-3.38-.01-5.01,1.41-8.87,8.48-11.28,12.78-.48-.52-.66-.7-1.21-1.14,2.55-8.48-1.75-16.2-9.29-20.28-9.27-5.03-19.1-2.14-28,1.99-3.56,1.65-7.76,3.48-11.7,3.8-2.5.17-4.57-.44-6.87-1.3,1.18-2.57,1.02-4.27-.11-6.84-.64-1.45-1.09-3.26-2.21-4.44-1.57-1.64-3.26-1.74-4.83-.1-2.73-4.11-5.43-7.33-9.87-9.74-4.87-2.6-10.57-3.2-15.88-1.67-6.28,1.86-10.99,5.95-14.1,11.66-2.84,5.21-3.75,11.95-2.03,17.65-1.81-1.65-4.73-3.47-7.29-2.36-.94.41-1.05,1.38-.78,2.28.44,1.45,1.14,2.89,1.74,4.3.8,1.93,1.58,3.86,2.35,5.8,4.83,12.1,7.93,22.4,20.29,29.15,3,1.68,6.19,2.95,9.35,4.28,3.36,1.41,6.77,2.8,9.16,5.7,3.42,4.15,3.19,9.62,3.02,14.67-.01.42-.09,1.62.08,1.93.26-.11.47-.49.57-.75,1.62-4.32,1.69-9.26.08-13.5-2.54-6.68-9.65-8.95-15.69-11.51-7.52-3.18-13.12-6.85-17.46-13.96-1.34-2.2-2.45-4.18-3.42-6.64.68.96,1.3,1.97,1.99,2.93,3.14,4.31,8.04,9.6,13.17,11.42-.68-.73-2.2-1.87-3.03-2.55-1.4-1.14-2.73-2.37-3.97-3.68-5.92-6.31-10.24-14.54-13.7-22.38-.85-1.94-1.82-3.91-2.6-5.87,4.72.34,8.58,7.14,11.06,11,.39.61.76,1.23,1.1,1.87,2.1,3.88,5.56,9.53,8.96,12.89.53.27,2.52,1.88,3.33,2.35,3.32,1.95,7.31,4.25,10.88,5.67-.87-1.01-2.28-2.08-3.34-2.9-3.22-2.5-7.12-4.45-10.09-7.2l-.34-.27c-.51-.49-1.02-1.08-1.5-1.6,1.28.23,1.85-.05,2.39-1.22-.06-.5-.2-.82-.38-1.29-1.15-1.34-2-2.06-3.73-2.58l-.02-.3c2.01.11,3.8.7,5.59,1.82.02.03.05.05.07.08,1.41.77,2.73,1.72,4.11,2.56,2.85,1.72,6.09,2.93,9.34,3.67,2.13.49,4.4.62,6.5,1.34,4.46,1.54,9.45,5.04,12.46,8.67,3.19,3.84,4.3,8.64,4.98,13.42.24,2.1.35,4.15.41,6.15.06,2.3.17,10.97,1,12.67l.15.05c.92-1.13,1.05-15.34,1.4-17.97.31-3.01.85-6.7,2.23-9.45.26-.77.79-1.66,1.2-2.36l.37-.59c.18-.31.48-.71.68-1.02.39-.55.75-.99,1.18-1.51.22-.32.95-1.06,1.26-1.32,1.53-1.75,3.48-3.05,5.47-4.22,3.87-2.1,6.51-2.21,10.52-3.16,1.78-.43,3.53-.97,5.24-1.61,6.09-2.28,9.27-7.59,15.88-7.15-1.28.26-2.5.64-3.53,1.48-1.96,1.6-2.29,3.89.83,3.88-1.71,1.93-5.04,4.55-7.32,5.83-2.47,1.92-5.77,3.62-8,6.1,4.68-1.79,9.74-4.62,13.7-7.66,1.18-1.04,2.52-2.27,3.57-3.41,1.99-2.42,2.89-3.78,4.4-6.53,2.62-5.18,7.19-15.58,13.71-16.11-.83,2.14-2.05,4.83-3.03,6.93-1.91,4.13-4.17,9.03-6.76,12.76-1.47,2.31-3.08,4.52-4.83,6.63-1.62,1.98-3.62,3.91-5.55,5.59-.98.85-2.37,1.64-3.18,2.58,3.19-1.36,6.08-3.47,8.5-5.92.2-.2.66-.7.85-.82,1.28-1.5,2.44-2.81,3.61-4.41.81-1.11,1.51-2.23,2.3-3.33-.46,1.22-3.77,7.66-4.58,8.34-.76,1.39-2.1,2.73-3.18,3.88-4.26,4.54-9.71,6.99-15.33,9.38-2.36,1-4.68,1.92-6.92,3.22-1.63.93-2.68,1.81-3.96,3.21-.16.18-1.04,1.26-1.09,1.31-2.71,4.45-3.42,9.32-2.06,14.4.16.58.61,2.46,1.22,2.65.15-.42.03-1.83,0-2.34-.34-5.79.03-12.93,5.41-16.45l.1-.06c1.6-1.35,5.98-3.28,8.02-4.09,7.1-2.82,11.54-5.17,16.91-10.63,5.79-6.47,8.76-15.56,11.93-23.48.69-1.71,1.39-3.42,2.11-5.13.4-.95,1.78-3.93,1.52-4.89ZM15.98,84.92c.3.14,3.91,2.55,3.97,2.63l-.23.04c-.85.09-1.17.19-1.99.43-.53-.87-1.36-2.2-1.75-3.11ZM22.06,91c.99.66,2.5,1.83,1.59,3.13-2.24,1.07-3.91-2.45-4.8-4.06,1.25-.04,2.16.22,3.21.93ZM36.47,93.81c-1.19-.02-2-.2-3.1-.68-2.34-1.02-4.47-2.55-6.68-3.82-1.05-.75-2.93-1.31-3.91-2.06-1.61-1.23-3.03-2.45-4.85-3.42-.74-.4-1.9-1.48-2.48-2.09-4.23-4.83-6.49-8.87-6.04-15.64.43-5.98,3.21-11.55,7.74-15.48,8.78-7.59,21.13-6.39,28.4,2.46,1.98,2.4,3.47,4.86,5.05,7.53.16.26.21.4.44.45.36-.64-.15-5.85,2.11-4.02,1.05.85,1.93,3.84,2.54,5.12.65,1.35.19,3.07-.59,4.28-.63-.53-1.39-1.23-2.01-1.7,1.75,5.04,5.54,8.73,2.68,14.91-.52,1.12-1.33,2.11-1.84,3.2-.24.51-.6,1.94-.7,2.51-.32,1.9-1.44,3.38-3.01,4.51-1.94,1.33-2.76,1-4.89,1.55-.72.18-1.73.89-2.45,1.26-2.05,1.05-4.16,1.17-6.41,1.13ZM54.33,90.85l-.17-.03c-.4-.2-.82-.44-1.21-.65l.57-.79c.22.22.73,1.16.82,1.47ZM65.96,113.75c-.39,1.07-.75,2.43-1.02,3.54-.63-3.46-2.29-7.2-4.19-10.13,2.94.99,5.05,1.37,8.07.66-1.26,2.13-2.01,3.61-2.85,5.93ZM108.47,93.81c-.65.57-.67.55-1.49.51-2.13-.86-.36-2.6.82-3.33.84-.52,1.57-.81,2.54-1,.35,0,.45-.06.7.09-.19.77-1.91,3.14-2.58,3.73ZM112.25,87.99c-2.5-1.02-4.95-.5-7.38.4-3.28,1.5-4.34,2.45-7.2,4.36l-.58.36s-.01.01-.02.02c-2.04,1.32-8.62,3.97-10.99,3.5-1.22-.24-2.21-1.09-2.87-2.11-1.66-2.56-1.45-5.52-.83-8.36,1.19-3.76,3.56-7.03,6.76-9.34,1.77-1.4,3.88-2.48,6.12-2.9.73-.14,1.65-.06,2.48-.23l.02-.14c-.36-.33-1.33-.55-1.82-.61-3.62-.47-6.55,1.27-9.31,3.28-3.26,3.17-4.92,5.08-6.28,9.57-.67,3.09-.8,5.06.21,8.1.69,1.6,1.18,2.43,2.44,3.62-3.25,1.1-4.15,1.55-7.19,3.22.64-3.82.05-6.04-1.52-9.56-.21-.46-.58-1.09-.83-1.55-1.44-2.19-3.15-4.09-4.9-6.03-.33-.36-.58-.87-.96-1.13l-.13.03c-.75,1.76,3.09,6.09,4,7.71,1.89,3.3,3.29,6.71,2.25,10.54-.5,1.86-1.73,3.44-3.41,4.38-2.48,1.38-5.69,1.15-8.32.38-3.35-.98-5.61-2.94-8.36-4.94-.97-.7-1.95-1.27-2.96-1.9-.3-.09-.99-.44-1.3-.59-2.86-1.37-5.84-1.83-8.93-2.4,2.14-.47,2.79-1.14,4.71-2.03.53-.24,1.71-.39,2.29-.48,1.43-.21,2.25-.55,3.47-1.28.09-.06.35-.28.44-.23,2.08,1.04,4.21,1.89,6.36,2.77,2.57,1.04,5.47,1.37,7.93,2.63.49.26,1.15.72,1.63,1.04-.3-.86-.44-1.18-.87-1.98-2.79-3.31-8.44-2.01-10.63-6.88-1.99-4.42,1.08-6.21,2.36-10.05,1.11-3.32.75-6.63-.81-9.71,13.27,5.67,25.88-12.11,42.81-6.16,4.42,1.55,8.38,4.79,10.41,9.05,1.55,3.24,1.73,6.76.53,10.14-2.45-.06-3.8.82-5.65,2.27-4.1-.17-6.01.03-9.62,2.16-.64.48-1.11.84-1.69,1.39-.31.38-.6.73-.87,1.14-.2.47-.52,1.12-.42,1.62.42.15,1.68-1.08,2.11-1.38l.3-.19c3.67-2.81,6.58-2.91,10.92-2.65,1.07-.88,1.81-1.82,3.25-2.23,1.26-.37,3.08-.14,3.46,1.38.2.78-.19,1.39-.62,2.02Z"/>
      <g>
        <path class="cls-1" d="M391.35,76.2h-9.35v-14.81h-5.79v14.81h-9.35v-36.1h9.35v13.36h5.79v-13.36h9.35v36.1ZM364.89,48.04h-7.09v28.17h-9.35v-28.17h-7.09v-7.94h23.53v7.94ZM339.25,76.2h-10.16l-6.43-23.26v23.26h-8.55v-36.1h10.12l6.09,22.99.14-.04v-22.96h8.79v36.1ZM300.24,62.8l-2.52-15.42h-.05l-2.66,15.42h5.24ZM312.25,76.2h-9.67l-1.29-6.06h-7.29l-1.21,6.06h-9.65l8.7-36.1h11.81l8.6,36.1ZM281.43,76.2h-9.36v-14.81h-5.77v14.81h-9.36v-36.1h9.36v13.36h5.77v-13.36h9.36v36.1ZM253.87,65.59c0,4.21-1.21,7.22-3.62,9.01-2.04,1.55-5.13,2.32-9.25,2.32s-6.76-.69-8.5-2.07c-2.25-1.78-3.37-4.96-3.37-9.5h9.09c0,1.58.13,2.73.4,3.43.43,1.21,1.29,1.82,2.57,1.82,2.01,0,3.02-1.16,3.02-3.49,0-1.72-.74-3.02-2.21-3.89-1.49-.68-2.97-1.35-4.44-2.03-2.81-1.41-4.62-2.5-5.42-3.28-1.74-1.65-2.61-3.92-2.61-6.78,0-7.82,3.87-11.73,11.61-11.73,4.67,0,7.91,1.1,9.76,3.29,1.41,1.68,2.11,4.25,2.11,7.69h-8.89c.17-3.1-.77-4.66-2.82-4.66-1.82,0-2.72,1.05-2.72,3.14,0,1.48.59,2.68,1.81,3.59.58.41,1.74.98,3.48,1.72,3.03,1.28,4.62,1.95,4.74,2.02,1.68.88,2.93,1.94,3.73,3.19,1.01,1.59,1.51,3.65,1.51,6.22M216.46,62.8l-2.52-15.42h-.05l-2.67,15.42h5.24ZM228.48,76.2h-9.67l-1.28-6.06h-7.3l-1.21,6.06h-9.64l8.69-36.1h11.82l8.59,36.1ZM188.4,51.02c0-2.73-1.28-4.1-3.85-4.1h-1.93v8.55h2.13c2.43,0,3.65-1.48,3.65-4.45M199.01,76.2h-10.01c-.57-.57-.85-3.1-.85-7.58,0-2.87-.22-4.75-.65-5.66-.41-.81-1.25-1.21-2.53-1.21h-2.36v14.46h-9.35v-36.1h15.03c6.3,0,9.46,3.13,9.46,9.41,0,3.21-.82,5.58-2.46,7.13-1.07,1.04-2.21,1.58-3.43,1.61v.11c1.82.4,3.04.95,3.68,1.62,1.3,1.32,1.97,3.75,1.97,7.28,0,2.83.06,4.72.2,5.66.16,1.49.6,2.58,1.3,3.28M160.5,51.18c0-2.83-1.18-4.25-3.53-4.25h-1.85v8.65h2.06c2.21,0,3.32-1.46,3.32-4.4M170.2,51.78c0,3.37-1.18,6.07-3.53,8.09-1.97,1.69-4.19,2.52-6.63,2.52h-4.92v13.81h-9.35v-36.1h14.04c6.93,0,10.4,3.9,10.4,11.68"/>
        <g>
          <path class="cls-1" d="M145.92,84.14h16.78v3.64h-12.77v11.6h11.9v3.74h-11.9v17.07h-4.01v-36.05Z"/>
          <path class="cls-1" d="M166.81,84.14h18.04v3.74h-14.02v11.6h13.11v3.64h-13.11v13.28h14.17v3.79h-18.18v-36.05Z"/>
          <path class="cls-1" d="M190.5,84.14h10.21c7.45,0,11.17,2.97,11.17,9.25,0,4.84-2.23,7.67-6.82,8.82,4.06.34,5.95,2.49,6.38,7.14.53,5.56.14,9.16,2.18,10.83h-5.03c-1.07-1.73-.82-4.94-1.21-9.54-.44-5.08-2.27-6.47-7.74-6.47h-5.13v16.01h-4.01v-36.05ZM199.4,100.68c5.56,0,8.27-2.01,8.27-6.71s-2.37-6.28-7.5-6.28h-5.66v12.99h4.88Z"/>
          <path class="cls-1" d="M223.73,87.83h-9.33v-3.69h22.15v3.69h-8.8v32.36h-4.01v-32.36Z"/>
          <path class="cls-1" d="M240.46,84.14h4.01v36.05h-4.01v-36.05Z"/>
          <path class="cls-1" d="M251.09,84.14h4.01v32.17h14.56v3.88h-18.57v-36.05Z"/>
          <path class="cls-1" d="M274.11,84.14h4.01v36.05h-4.01v-36.05Z"/>
          <path class="cls-1" d="M291.52,87.83h-9.33v-3.69h22.15v3.69h-8.8v32.36h-4.01v-32.36Z"/>
          <path class="cls-1" d="M315.07,106.24l-10.78-22.1h4.84l8.03,17.74,8.42-17.74h4.4l-10.88,22.1v13.95h-4.01v-13.95Z"/>
        </g>
      </g>
      <path class="cls-2" d="M129.5,65.53h0c-.85,0-1.54-.68-1.56-1.52-.06-2.5-.27-4.99-.62-7.44C122.94,26.1,96.38,3.13,65.55,3.13S8.17,26.1,3.79,56.57c-.35,2.45-.56,4.94-.62,7.44-.02.85-.71,1.52-1.56,1.52h0c-.88,0-1.59-.73-1.57-1.61.06-2.62.28-5.23.65-7.8,2.22-15.45,9.95-29.64,21.77-39.96C34.39,5.74,49.69,0,65.55,0s31.16,5.74,43.1,16.16c11.82,10.32,19.55,24.51,21.77,39.96.37,2.57.59,5.19.65,7.8.02.88-.69,1.61-1.57,1.61Z"/>
    </g>
  </g>
</svg>