<?xml version="1.0" encoding="UTF-8"?>
<svg id="Layer_2" data-name="Layer 2" xmlns="http://www.w3.org/2000/svg" xmlns:xlink="http://www.w3.org/1999/xlink" viewBox="0 0 565.26 603.1">
  <defs>
    <style>
      .cls-1 {
        opacity: .06;
      }

      .cls-2 {
        fill: #ed4957;
      }

      .cls-3 {
        fill: url(#linear-gradient);
      }
    </style>
    <linearGradient id="linear-gradient" x1="-38.31" y1="210.75" x2="462.19" y2="504.15" gradientUnits="userSpaceOnUse">
      <stop offset="0" stop-color="#f15e47"/>
      <stop offset=".48" stop-color="#ec376c"/>
      <stop offset="1" stop-color="#9a247a"/>
    </linearGradient>
  </defs>
  <g id="Layer_1-2" data-name="Layer 1">
    <g class="cls-1">
      <g>
        <path class="cls-3" d="M141.76,359.6c.95-2,2.7-7.38,3.36-8.19,3.36.94,1.87,9.57,1.11,12.11-4.21,9.97-16.95,18.48-27.63,14.09l-.23-.56c1.38-1.06,5.07-2.53,6.79-3.24,7.55-3.14,12.39-7.28,16.6-14.22ZM207.09,358.98c2.2-4.85,5.08-9.09,11.23-8.56l.2.38c-.57.49-3.4,2.9-3.7,3.32-3.05,4.29-1.72,11-5.37,15.16-5,5.68-11.11,8.02-17.17,13.41-4.51,3.45-5.59,4.11-10.9,6.07.99-1.65,2-3.29,3.02-4.91,4.84-6.82,2.49-11.2,12.41-15.16,3.44-5.52,4.78-6.44,10.28-9.71ZM78.36,231.63c1.1.86,3.25,8.33,4.12,10.29,9.83,22.09,28.56,29.26,51.94,25.1-1.65,1.17-2.78,1.84-4.55,2.83-17.83,6.8-36.9,2.2-47.02-14.83-3.92-6.59-6.47-15.78-4.49-23.39ZM62.34,245.26c1.5.51,3.08,3.06,3.93,4.36,11.8,18.08,26.31,35.41,49.63,36.15,1.88.06,4.27-.02,6.14.31l-.05.53-1.13.64c-.6.18-1.2.35-1.81.52-29.24,8.11-49.97-16.72-56.71-42.5ZM94.83,218.89c.44,1.24.62,4.49.88,6.04,4.06,23.78,25.85,33,48.52,25.2-2.07,1.99-2.75,2.51-5.14,4.09-18.88,10-41.09,1.61-46.02-19.98-.96-4.21-.71-11.74,1.75-15.36ZM53.9,264.13c9.15-.3,20.33,15.25,22.97,23.24,3.38,10.21,3.19,18.36-1.33,27.99-.76,1.24-.74,1.2-1.83,2.16l-.43-.27c.34-4.44,1.35-6.64,1.24-11.76-.41-17.62-8.55-29.61-20.61-41.36ZM205.7,290.32c1.74,1.68,1.43,4.33,1.35,6.61-.5,15.52-11.59,25.5-26.75,24.94-1-.28-.74-.1-1.4-.79.56-1.07,4.99-2.81,6.5-3.73,11.44-6.96,16.86-14.46,20.29-27.04ZM168,357.17c1.38,1.79-.64,6.63,3.31,8.19,1.96-.58,3.43-3.64,5.79-4.8,2.08-1.02,6.15-.25,7.23,1.5l-1.12,1c-2.86,1.97-7.02,5.56-10.39,5.72-6.21.31-8.58-7.15-4.83-11.62ZM187.47,340.56c3.7-.24,8.16,3.49,7.95,7.35-.22,3.92-4.98,6.38-7.79,8.83l-.36.12c-2.17-.85-2.61-3.7-1.74-5.66,1.29-2.91,5.52-1.52,6.49-4.76-.69-3.05-3.46-3.7-4.54-5.88ZM559.8,312.13c-.52-1.92-1.82-3.54-3.58-4.47-4.02-2.15-10.34-1.25-14.6-.05-21.63,6.07-38.25,36.56-48.64,55.11-2.07-2.25-2.84-3.04-5.24-4.9,10.98-36.57-7.56-69.85-40.05-87.47-39.99-21.69-82.37-9.22-120.75,8.57-15.37,7.12-33.46,15.03-50.48,16.41-10.8.73-19.69-1.9-29.61-5.62,5.1-11.09,4.4-18.42-.48-29.5-2.75-6.24-4.68-14.07-9.54-19.14-6.78-7.06-14.06-7.5-20.83-.44-11.78-17.71-23.41-31.59-42.58-42-21.02-11.23-45.59-13.81-68.48-7.19-27.06,8.03-47.42,25.65-60.83,50.28-12.23,22.47-16.16,51.52-8.76,76.14-7.8-7.11-20.41-14.97-31.44-10.17-4.04,1.76-4.54,5.94-3.34,9.84,1.91,6.26,4.92,12.47,7.5,18.54,3.45,8.31,6.83,16.65,10.14,25.02,20.84,52.2,34.19,96.59,87.52,125.72,12.93,7.24,26.68,12.72,40.32,18.46,14.5,6.1,29.2,12.1,39.5,24.59,14.75,17.89,13.74,41.48,13.03,63.27-.06,1.81-.38,6.97.34,8.32,1.13-.47,2.03-2.13,2.45-3.24,6.98-18.63,7.28-39.92.33-58.22-10.95-28.82-41.63-38.6-67.66-49.62-32.43-13.72-56.6-29.56-75.29-60.21-5.78-9.47-10.56-18.03-14.76-28.62,2.95,4.13,5.6,8.51,8.6,12.64,13.53,18.57,34.68,41.4,56.8,49.26-2.92-3.15-9.5-8.07-13.07-10.98-6.05-4.91-11.78-10.2-17.14-15.86-25.52-27.2-44.17-62.7-59.1-96.52-3.68-8.35-7.87-16.86-11.21-25.3,20.37,1.48,36.99,30.78,47.68,47.45,1.69,2.63,3.26,5.32,4.75,8.07,9.04,16.72,23.98,41.12,38.65,55.57,2.3,1.15,10.85,8.09,14.35,10.14,14.31,8.4,31.51,18.34,46.94,24.46-3.75-4.36-9.85-8.98-14.4-12.52-13.88-10.79-30.72-19.17-43.51-31.07l-1.47-1.18c-2.18-2.12-4.39-4.64-6.46-6.9,5.52.99,7.97-.2,10.3-5.25-.26-2.18-.86-3.54-1.62-5.57-4.94-5.8-8.64-8.87-16.09-11.13l-.07-1.28c8.65.47,16.39,3.02,24.1,7.87.1.12.21.24.31.36,6.09,3.3,11.76,7.41,17.74,11.04,12.27,7.41,26.29,12.62,40.26,15.83,9.19,2.11,18.99,2.66,28.04,5.79,19.25,6.65,40.74,21.75,53.73,37.38,13.75,16.54,18.52,37.27,21.47,57.88,1.05,9.06,1.53,17.89,1.75,26.54.26,9.93.75,47.33,4.32,54.62l.64.22c3.95-4.89,4.53-66.16,6.03-77.5,1.32-12.99,3.68-28.9,9.6-40.74,1.11-3.34,3.4-7.18,5.18-10.18l1.58-2.56c.8-1.33,2.05-3.06,2.95-4.39,1.69-2.36,3.25-4.28,5.11-6.52.96-1.36,4.11-4.59,5.43-5.7,6.6-7.56,15.01-13.17,23.6-18.21,16.7-9.08,28.06-9.55,45.38-13.63,7.67-1.85,15.22-4.18,22.6-6.96,26.27-9.85,39.96-32.74,68.48-30.84-5.54,1.13-10.79,2.77-15.21,6.38-8.47,6.9-9.86,16.76,3.59,16.72-7.39,8.33-21.75,19.64-31.56,25.14-10.67,8.29-24.9,15.63-34.49,26.33,20.18-7.72,42.02-19.91,59.08-33.04,5.08-4.47,10.85-9.78,15.41-14.71,8.59-10.45,12.46-16.29,18.96-28.15,11.29-22.33,31.01-67.21,59.12-69.48-3.56,9.24-8.86,20.83-13.05,29.89-8.25,17.8-17.97,38.96-29.15,55.01-6.33,9.96-13.28,19.5-20.81,28.58-6.98,8.53-15.61,16.86-23.95,24.1-4.22,3.66-10.22,7.08-13.73,11.12,13.77-5.85,26.22-14.98,36.66-25.53.87-.88,2.83-3.02,3.67-3.56,5.52-6.47,10.52-12.1,15.56-19.02,3.5-4.8,6.51-9.62,9.9-14.37-1.99,5.28-16.28,33.03-19.73,35.96-3.29,6-9.08,11.77-13.73,16.74-18.35,19.58-41.86,30.16-66.13,40.47-10.16,4.31-20.16,8.28-29.84,13.89-7.03,4-11.57,7.8-17.07,13.83-.71.78-4.47,5.45-4.68,5.65-11.7,19.2-14.77,40.19-8.91,62.09.68,2.52,2.64,10.59,5.27,11.43.67-1.81.14-7.9.01-10.09-1.46-24.96.12-55.78,23.33-70.93l.42-.27c6.89-5.81,25.78-14.16,34.6-17.65,30.64-12.15,49.76-22.28,72.91-45.85,24.99-27.91,37.79-67.13,51.46-101.25,2.98-7.4,6.01-14.77,9.1-22.12,1.72-4.11,7.69-16.94,6.57-21.08ZM68.91,366.25c1.3.59,16.87,10.99,17.13,11.34l-1.01.19c-3.67.38-5.05.83-8.57,1.87-2.3-3.75-5.84-9.5-7.55-13.41ZM95.12,392.44c4.26,2.86,10.76,7.9,6.86,13.5-9.66,4.6-16.87-10.56-20.71-17.49,5.38-.17,9.33.96,13.85,3.99ZM157.27,404.56c-5.15-.08-8.64-.88-13.38-2.94-10.09-4.39-19.27-10.99-28.82-16.46-4.55-3.26-12.63-5.64-16.85-8.87-6.95-5.31-13.06-10.56-20.94-14.76-3.21-1.72-8.19-6.4-10.71-9.01-18.26-20.83-27.99-38.25-26.03-67.46,1.84-25.8,13.85-49.82,33.39-66.77,37.86-32.72,91.11-27.55,122.5,10.61,8.53,10.37,14.97,20.95,21.77,32.49.67,1.1.9,1.73,1.89,1.95,1.57-2.74-.63-25.21,9.1-17.33,4.53,3.67,8.31,16.57,10.96,22.1,2.8,5.84.83,13.26-2.55,18.45-2.73-2.27-6.01-5.29-8.69-7.34,7.54,21.75,23.89,37.64,11.57,64.3-2.24,4.84-5.72,9.1-7.93,13.8-1.03,2.19-2.59,8.36-3.01,10.83-1.38,8.19-6.21,14.56-12.97,19.44-8.38,5.74-11.9,4.32-21.09,6.67-3.1.79-7.47,3.84-10.56,5.42-8.83,4.52-17.96,5.05-27.66,4.89ZM234.3,391.83l-.73-.11c-1.72-.87-3.53-1.89-5.23-2.82l2.45-3.41c.97.97,3.16,4.98,3.52,6.34ZM284.47,490.58c-1.69,4.63-3.25,10.5-4.41,15.27-2.72-14.94-9.89-31.03-18.09-43.71,12.68,4.27,21.77,5.92,34.8,2.86-5.43,9.16-8.69,15.55-12.3,25.58ZM467.82,404.59c-2.8,2.46-2.9,2.37-6.43,2.19-9.18-3.7-1.55-11.23,3.56-14.36,3.63-2.23,6.78-3.51,10.95-4.31,1.51,0,1.93-.26,3.04.39-.8,3.34-8.22,13.56-11.11,16.09ZM484.1,379.46c-10.77-4.39-21.35-2.14-31.84,1.72-14.13,6.46-18.72,10.56-31.05,18.79l-2.48,1.56s-.06.06-.1.08c-8.79,5.7-37.19,17.11-47.39,15.09-5.25-1.04-9.53-4.7-12.38-9.1-7.15-11.03-6.25-23.81-3.59-36.08,5.13-16.21,15.36-30.32,29.15-40.26,7.63-6.05,16.73-10.69,26.4-12.5,3.14-.58,7.13-.26,10.68-1.01l.1-.62c-1.55-1.43-5.72-2.37-7.85-2.64-15.62-2.01-28.27,5.49-40.17,14.14-14.08,13.67-21.22,21.92-27.07,41.26-2.9,13.35-3.44,21.83.92,34.92,2.97,6.9,5.08,10.48,10.51,15.59-14.03,4.75-17.91,6.68-31.01,13.87,2.76-16.5.2-26.04-6.54-41.23-.91-1.99-2.49-4.69-3.58-6.68-6.22-9.44-13.6-17.63-21.13-26.02-1.4-1.56-2.51-3.77-4.13-4.86l-.56.11c-3.24,7.59,13.32,26.27,17.27,33.25,8.14,14.22,14.18,28.95,9.71,45.46-2.15,8.02-7.45,14.83-14.69,18.87-10.69,5.93-24.55,4.95-35.88,1.63-14.46-4.24-24.18-12.67-36.06-21.3-4.18-3.04-8.4-5.47-12.79-8.17-1.29-.38-4.25-1.91-5.62-2.56-12.33-5.9-25.17-7.88-38.53-10.36,9.23-2.01,12.01-4.93,20.29-8.74,2.27-1.05,7.36-1.69,9.89-2.07,6.17-.92,9.69-2.39,14.98-5.52.39-.26,1.5-1.2,1.89-1.01,8.95,4.47,18.17,8.17,27.43,11.94,11.07,4.51,23.6,5.92,34.18,11.33,2.12,1.11,4.97,3.12,7.05,4.49-1.29-3.71-1.9-5.08-3.76-8.53-12.03-14.27-36.38-8.66-45.83-29.66-8.57-19.05,4.66-26.79,10.17-43.34,4.78-14.33,3.22-28.6-3.5-41.88,57.21,24.47,111.62-52.21,184.62-26.57,19.06,6.7,36.14,20.64,44.92,39.03,6.67,13.97,7.47,29.17,2.3,43.74-10.55-.28-16.4,3.56-24.37,9.78-17.68-.74-25.92.12-41.49,9.33-2.75,2.09-4.81,3.63-7.29,6-1.32,1.64-2.58,3.16-3.76,4.91-.86,2.04-2.23,4.82-1.8,6.98,1.8.66,7.24-4.64,9.12-5.94l1.28-.83c15.83-12.11,28.39-12.56,47.08-11.43,4.62-3.79,7.81-7.83,14.01-9.63,5.43-1.58,13.26-.59,14.93,5.94.85,3.35-.83,5.99-2.66,8.69Z"/>
        <path class="cls-2" d="M558.5,282.63h0c-3.66,0-6.65-2.91-6.74-6.57-.26-10.76-1.16-21.52-2.67-32.08C530.19,112.58,415.68,13.5,282.71,13.5S35.23,112.58,16.34,243.98c-1.52,10.56-2.42,21.32-2.67,32.08-.09,3.66-3.08,6.57-6.74,6.57h0c-3.8,0-6.85-3.13-6.76-6.93.27-11.28,1.21-22.57,2.81-33.64,9.58-66.63,42.92-127.84,93.88-172.35C148.31,24.75,214.31,0,282.71,0s134.4,24.75,185.86,69.7c50.96,44.52,84.3,105.72,93.88,172.35,1.59,11.07,2.53,22.36,2.81,33.64.09,3.8-2.96,6.93-6.76,6.93Z"/>
      </g>
    </g>
  </g>
</svg>