<?xml version="1.0" encoding="UTF-8"?>
<svg id="Layer_2" data-name="Layer 2" xmlns="http://www.w3.org/2000/svg" viewBox="0 0 413.94 147.94">
  <defs>
    <style>
      .cls-1 {
        fill: #fff;
      }
    </style>
  </defs>
  <g id="Layer_1-2" data-name="Layer 1">
    <g>
      <path class="cls-1" d="M413.94,81.94h-9.88v-15.66h-6.12v15.66h-9.88v-38.16h9.88v14.12h6.12v-14.12h9.88v38.16ZM385.98,52.17h-7.5v29.78h-9.89v-29.78h-7.49v-8.39h24.87v8.39ZM358.87,81.94h-10.74l-6.8-24.58v24.58h-9.04v-38.16h10.7l6.43,24.31.15-.04v-24.27h9.29v38.16ZM317.64,67.78l-2.67-16.3h-.06l-2.82,16.3h5.54ZM330.33,81.94h-10.23l-1.36-6.41h-7.71l-1.28,6.41h-10.2l9.2-38.16h12.49l9.09,38.16ZM297.76,81.94h-9.89v-15.66h-6.1v15.66h-9.89v-38.16h9.89v14.12h6.1v-14.12h9.89v38.16ZM268.62,70.72c0,4.46-1.28,7.63-3.82,9.52-2.16,1.64-5.42,2.46-9.78,2.46s-7.15-.73-8.98-2.19c-2.38-1.89-3.56-5.24-3.56-10.05h9.61c0,1.67.14,2.88.43,3.63.46,1.28,1.37,1.92,2.71,1.92,2.12,0,3.19-1.23,3.19-3.68,0-1.82-.78-3.19-2.33-4.11-1.57-.71-3.13-1.43-4.69-2.15-2.97-1.5-4.88-2.64-5.73-3.46-1.84-1.75-2.76-4.14-2.76-7.17,0-8.27,4.09-12.4,12.27-12.4,4.93,0,8.36,1.16,10.32,3.48,1.49,1.78,2.23,4.49,2.23,8.13h-9.39c.18-3.28-.82-4.92-2.98-4.92-1.93,0-2.88,1.11-2.88,3.32,0,1.57.63,2.83,1.91,3.79.62.43,1.84,1.04,3.68,1.82,3.2,1.35,4.88,2.07,5.01,2.13,1.78.93,3.1,2.05,3.94,3.37,1.07,1.68,1.6,3.86,1.6,6.57M229.08,67.78l-2.67-16.3h-.05l-2.82,16.3h5.54ZM241.78,81.94h-10.23l-1.35-6.41h-7.71l-1.28,6.41h-10.19l9.19-38.16h12.49l9.08,38.16ZM199.42,55.33c0-2.89-1.35-4.33-4.07-4.33h-2.04v9.03h2.26c2.57,0,3.86-1.57,3.86-4.7M210.64,81.94h-10.58c-.6-.6-.9-3.28-.9-8.02,0-3.03-.24-5.02-.69-5.98-.43-.86-1.32-1.28-2.67-1.28h-2.49v15.28h-9.89v-38.16h15.89c6.66,0,10,3.31,10,9.94,0,3.39-.87,5.9-2.6,7.54-1.14,1.1-2.34,1.68-3.63,1.71v.11c1.93.43,3.21,1,3.89,1.71,1.38,1.39,2.08,3.96,2.08,7.7,0,2.99.06,4.99.22,5.99.17,1.57.64,2.73,1.37,3.47M169.92,55.49c0-2.99-1.25-4.49-3.73-4.49h-1.96v9.14h2.18c2.34,0,3.51-1.55,3.51-4.65M180.19,56.13c0,3.56-1.25,6.41-3.73,8.55-2.08,1.78-4.43,2.67-7.01,2.67h-5.2v14.59h-9.88v-38.16h14.84c7.32,0,10.99,4.12,10.99,12.35"/>
      <polygon class="cls-1" points="154.52 90.33 172.26 90.33 172.26 94.18 158.76 94.18 158.76 106.45 171.33 106.45 171.33 110.4 158.76 110.4 158.76 128.44 154.52 128.44 154.52 90.33"/>
      <polygon class="cls-1" points="176.6 90.33 195.66 90.33 195.66 94.28 180.84 94.28 180.84 106.55 194.69 106.55 194.69 110.4 180.84 110.4 180.84 124.43 195.82 124.43 195.82 128.44 176.6 128.44 176.6 90.33"/>
      <path class="cls-1" d="M201.64,90.33h10.79c7.87,0,11.81,3.14,11.81,9.78,0,5.12-2.35,8.11-7.21,9.32,4.29.36,6.29,2.64,6.75,7.55.56,5.88.15,9.68,2.3,11.45h-5.32c-1.13-1.82-.87-5.22-1.28-10.08-.46-5.37-2.4-6.84-8.18-6.84h-5.42v16.92h-4.24v-38.11ZM211.05,107.81c5.88,0,8.74-2.13,8.74-7.09s-2.5-6.64-7.92-6.64h-5.98v13.73h5.16Z"/>
      <polygon class="cls-1" points="236.76 94.23 226.9 94.23 226.9 90.33 250.31 90.33 250.31 94.23 241 94.23 241 128.44 236.76 128.44 236.76 94.23"/>
      <rect class="cls-1" x="254.45" y="90.33" width="4.24" height="38.11"/>
      <polygon class="cls-1" points="265.69 90.33 269.93 90.33 269.93 124.33 285.32 124.33 285.32 128.44 265.69 128.44 265.69 90.33"/>
      <rect class="cls-1" x="290.02" y="90.33" width="4.24" height="38.11"/>
      <polygon class="cls-1" points="308.42 94.23 298.56 94.23 298.56 90.33 321.97 90.33 321.97 94.23 312.67 94.23 312.67 128.44 308.42 128.44 308.42 94.23"/>
      <polygon class="cls-1" points="333.32 113.69 321.92 90.33 327.03 90.33 335.51 109.08 344.41 90.33 349.06 90.33 337.56 113.69 337.56 128.44 333.32 128.44 333.32 113.69"/>
      <path class="cls-1" d="M19.46,93.48c.87-.26,1.21-.37,2.11-.46l.25-.05c-.06-.09-3.9-2.65-4.22-2.79.42.96,1.29,2.38,1.86,3.3"/>
      <path class="cls-1" d="M67.99,128.45c-.73-5.08-1.9-10.18-5.29-14.25-3.2-3.85-8.49-7.57-13.23-9.2-2.23-.77-4.64-.91-6.9-1.43-3.44-.79-6.89-2.07-9.91-3.9-1.47-.89-2.87-1.91-4.37-2.72-.03-.03-.05-.06-.08-.09-1.9-1.19-3.8-1.82-5.93-1.94l.02.32c1.83.56,2.74,1.31,3.96,2.74.19.5.33.84.4,1.37-.57,1.24-1.18,1.54-2.54,1.29.51.56,1.05,1.18,1.59,1.7l.36.29c3.15,2.93,7.3,4.99,10.71,7.65,1.12.87,2.62,2.01,3.55,3.08-3.8-1.51-8.04-3.95-11.56-6.02-.86-.5-2.97-2.21-3.53-2.5-3.61-3.56-7.29-9.56-9.52-13.68-.37-.68-.75-1.34-1.17-1.99-2.63-4.11-6.72-11.32-11.74-11.68.82,2.08,1.85,4.17,2.76,6.23,3.67,8.33,8.27,17.07,14.55,23.76,1.32,1.39,2.73,2.7,4.22,3.9.88.71,2.5,1.93,3.22,2.7-5.45-1.93-10.65-7.56-13.98-12.13-.74-1.01-1.39-2.09-2.12-3.11,1.04,2.61,2.21,4.72,3.64,7.05,4.6,7.55,10.55,11.45,18.54,14.82,6.41,2.71,13.96,5.12,16.66,12.22,1.71,4.5,1.64,9.75-.08,14.33-.08.2-.22.48-.4.66,3.27-.2,6.53-.33,9.8-.5l5-.21,4.51-.16c-.55-3.19-.64-10.03-.7-12.08-.06-2.13-.17-4.3-.43-6.53"/>
      <path class="cls-1" d="M20.64,95.64c.95,1.71,2.72,5.44,5.1,4.31.96-1.38-.64-2.62-1.69-3.32-1.11-.75-2.09-1.02-3.41-.98"/>
      <path class="cls-1" d="M57.45,94.91l-.6.84c.42.23.86.48,1.29.69l.18.03c-.09-.33-.63-1.32-.87-1.56"/>
      <path class="cls-1" d="M19.67,89.01c1.94,1.04,3.44,2.33,5.15,3.64,1.04.79,3.03,1.38,4.15,2.18,2.35,1.35,4.61,2.97,7.09,4.05,1.17.51,2.02.7,3.29.73,2.39.04,4.64-.09,6.81-1.2.76-.39,1.84-1.14,2.6-1.33,2.26-.58,3.13-.23,5.19-1.64,1.66-1.2,2.85-2.77,3.19-4.79.1-.61.49-2.13.74-2.67.54-1.16,1.4-2.2,1.95-3.4,3.03-6.56-.99-10.48-2.85-15.83.66.51,1.47,1.25,2.14,1.81.83-1.28,1.32-3.1.63-4.54-.65-1.36-1.58-4.54-2.7-5.44-2.4-1.94-1.85,3.59-2.24,4.27-.24-.05-.3-.21-.46-.48-1.67-2.84-3.26-5.45-5.36-8-7.73-9.39-20.84-10.67-30.16-2.61-4.81,4.17-7.77,10.09-8.22,16.44-.48,7.19,1.91,11.48,6.41,16.61.62.64,1.85,1.8,2.64,2.22M54.39,86.28l.05.09c-.14.12-.84.71-.91.82-.75,1.06-.42,2.71-1.32,3.73-1.23,1.4-2.74,1.98-4.23,3.3-1.11.85-1.38,1.01-2.68,1.5.24-.41.49-.81.74-1.21,1.19-1.68.61-2.76,3.06-3.73.85-1.36,1.18-1.59,2.53-2.39.54-1.19,1.25-2.24,2.76-2.11M46.79,83.85c.91-.06,2.01.86,1.96,1.81-.05.97-1.23,1.57-1.92,2.17l-.09.03c-.53-.21-.64-.91-.43-1.39.32-.72,1.36-.38,1.6-1.17-.17-.75-.85-.91-1.12-1.45M46.28,78.14c2.82-1.71,4.15-3.56,5-6.66.43.41.35,1.07.33,1.63-.12,3.82-2.85,6.28-6.59,6.14-.25-.07-.18-.02-.34-.19.14-.26,1.23-.69,1.6-.92M42,87.94c.34.44-.16,1.63.82,2.02.48-.14.84-.9,1.43-1.18.51-.25,1.51-.06,1.78.37l-.28.25c-.7.48-1.73,1.37-2.56,1.41-1.53.08-2.11-1.76-1.19-2.86M36.64,89.5c-1.04,2.45-4.17,4.55-6.8,3.47l-.06-.14c.34-.26,1.25-.62,1.67-.8,1.86-.77,3.05-1.79,4.09-3.5.23-.49.67-1.82.83-2.02.83.23.46,2.36.27,2.98M23.98,53.89c.11.3.15,1.11.22,1.49,1,5.85,6.36,8.13,11.95,6.2-.51.49-.68.62-1.27,1.01-4.65,2.46-10.12.4-11.33-4.92-.24-1.04-.17-2.89.43-3.78M19.93,57.03c.27.21.8,2.05,1.02,2.53,2.42,5.44,7.03,7.2,12.79,6.18-.41.29-.68.45-1.12.7-4.39,1.67-9.08.54-11.58-3.65-.97-1.62-1.59-3.88-1.1-5.76M16.95,61.46c2.9,4.45,6.48,8.72,12.22,8.9.46.01,1.05,0,1.51.08v.13s-.29.16-.29.16c-.15.04-.3.09-.44.13-7.2,2-12.3-4.12-13.96-10.46.37.13.76.75.97,1.07M13.91,65.03c2.25-.07,5.01,3.76,5.66,5.72.83,2.51.79,4.52-.33,6.89-.19.31-.18.29-.45.53l-.11-.07c.08-1.09.33-1.63.3-2.89-.1-4.34-2.11-7.29-5.08-10.18"/>
      <path class="cls-1" d="M59.85,94.71c2.32,5.17,8.32,3.79,11.28,7.3.46.85.61,1.19.92,2.1-.51-.34-1.21-.83-1.73-1.11-2.6-1.33-5.69-1.68-8.41-2.79-2.28-.93-4.55-1.84-6.75-2.94-.09-.05-.37.18-.46.25-1.3.77-2.17,1.13-3.69,1.36-.62.09-1.88.25-2.43.51-2.04.94-2.72,1.66-5,2.15,3.29.61,6.45,1.1,9.49,2.55.34.16,1.06.54,1.38.63,1.08.67,2.12,1.27,3.15,2.01,2.93,2.12,5.32,4.2,8.88,5.24,2.79.82,6.2,1.06,8.83-.4,1.78-1,3.09-2.67,3.62-4.65,1.1-4.06-.39-7.69-2.39-11.19-.97-1.72-5.05-6.32-4.25-8.19l.14-.03c.4.27.67.81,1.02,1.2,1.85,2.06,3.67,4.08,5.2,6.41.27.49.66,1.15.88,1.64,1.66,3.74,2.29,6.09,1.61,10.15,3.23-1.77,4.18-2.25,7.63-3.42-1.34-1.26-1.85-2.14-2.59-3.84-1.07-3.22-.94-5.31-.23-8.6,1.44-4.76,3.2-6.79,6.66-10.16,2.93-2.13,6.04-3.98,9.89-3.48.52.07,1.55.3,1.93.65l-.03.15c-.88.18-1.86.1-2.63.25-2.38.44-4.62,1.59-6.5,3.08-3.4,2.45-5.91,5.92-7.18,9.91-.66,3.02-.88,6.17.88,8.88.7,1.08,1.76,1.98,3.05,2.24,2.51.5,9.5-2.31,11.67-3.71,0,0,.02-.01.03-.02l.61-.38c3.04-2.03,4.17-3.03,7.65-4.63,2.58-.95,5.19-1.51,7.84-.42.45-.67.86-1.31.65-2.14-.41-1.61-2.34-1.85-3.68-1.46-1.53.44-2.31,1.44-3.45,2.37-4.6-.28-7.69-.17-11.59,2.81l-.32.21c-.46.32-1.8,1.62-2.25,1.46-.11-.53.23-1.22.44-1.72.29-.43.6-.81.93-1.21.61-.58,1.12-.96,1.79-1.48,3.83-2.27,5.86-2.48,10.22-2.3,1.96-1.53,3.4-2.48,6-2.41,1.27-3.59,1.08-7.33-.57-10.77-2.16-4.53-6.37-7.96-11.06-9.61-17.97-6.31-31.37,12.57-45.45,6.54,1.65,3.27,2.04,6.78.86,10.31-1.36,4.08-4.62,5.98-2.5,10.67"/>
      <path class="cls-1" d="M115.11,96.62c-1.26.77-3.13,2.63-.88,3.54.87.04.89.07,1.58-.54.71-.62,2.54-3.14,2.74-3.96-.27-.16-.38-.1-.75-.1-1.03.2-1.8.51-2.69,1.06"/>
      <path class="cls-1" d="M121.77,94.68c-1.6,2.92-2.55,4.36-4.67,6.93-1.12,1.21-2.54,2.52-3.79,3.62-4.2,3.23-9.58,6.23-14.55,8.13,2.36-2.63,5.87-4.44,8.49-6.48,2.42-1.36,5.95-4.14,7.77-6.19-3.31.01-2.97-2.42-.88-4.12,1.09-.89,2.38-1.29,3.74-1.57-7.02-.47-10.39,5.17-16.86,7.59-1.82.68-3.68,1.26-5.56,1.71-4.26,1.01-7.06,1.12-11.17,3.36-2.11,1.24-4.18,2.62-5.81,4.48-.33.27-1.1,1.07-1.34,1.4-.46.55-.84,1.03-1.26,1.61-.22.33-.53.75-.73,1.08l-.39.63c-.44.74-1,1.68-1.28,2.5-1.46,2.91-2.04,6.83-2.36,10.03-.31,2.36-.46,13.51-1.09,17.62,1.53-.06,3.05-.15,4.58-.22,1.67-.08,3.33-.09,5-.01,1.67.07,3.33.2,5,.37,1.58.18,3.16.39,4.75.72-.52-.55-.9-2.1-1.04-2.64-1.44-5.39-.69-10.56,2.19-15.29.05-.05.98-1.2,1.15-1.39,1.35-1.49,2.47-2.42,4.2-3.41,2.38-1.38,4.84-2.36,7.35-3.42,5.98-2.54,11.76-5.14,16.28-9.96,1.15-1.22,2.57-2.64,3.38-4.12.85-.72,4.37-7.55,4.86-8.85-.83,1.17-1.58,2.36-2.44,3.54-1.24,1.7-2.47,3.09-3.83,4.68-.21.13-.69.66-.9.88-2.57,2.6-5.64,4.85-9.03,6.29.86-.99,2.34-1.84,3.38-2.74,2.05-1.78,4.18-3.83,5.9-5.93,1.86-2.24,3.57-4.59,5.12-7.04,2.75-3.95,5.15-9.16,7.18-13.54,1.03-2.23,2.34-5.08,3.21-7.36-6.92.56-11.78,11.61-14.56,17.11"/>
      <path class="cls-1" d="M73.7,114.49c-3.21.75-5.45.35-8.57-.7,2.02,3.12,3.78,7.08,4.45,10.76.29-1.17.67-2.62,1.09-3.76.89-2.47,1.69-4.04,3.03-6.3"/>
      <path class="cls-1" d="M139.13,67.88c-.07-2.78-.3-5.56-.69-8.28-2.36-16.4-10.57-31.47-23.11-42.43C102.66,6.09,86.41,0,69.57,0S36.47,6.09,23.81,17.16C11.26,28.12,3.05,43.19.69,59.6.3,62.32.07,65.1,0,67.88c-.02.93.73,1.71,1.66,1.71s1.64-.72,1.66-1.62c.06-2.65.28-5.3.66-7.9C8.63,27.72,36.83,3.32,69.57,3.32s60.93,24.4,65.58,56.74c.37,2.6.59,5.25.66,7.9.02.9.76,1.62,1.66,1.62s1.69-.77,1.66-1.71"/>
    </g>
  </g>
</svg>